:FULLY-SPECIFIED
:FORCE-ALL-JOINTS-BE-3DOF
:DEGREES
408
root 2.82358 15.0122 -35.8558 177.257 77.1694 176.496
lfemur -8.46414 -7.34468 -19.2663
ltibia 58.2381 -0 0
lfoot -27.4321 33.4907 0.0968485
ltoes -17.2575 0 0
rfemur -47.3613 1.0607 7.65952
rtibia 28.45 -0 0
rfoot 5.38824 -10.607 2.03523
rtoes 16.7794 -0 0
lowerback 15.7804 -1.20899 -9.02844
upperback -0.188923 -2.8181 4.18495
thorax -8.41652 -0.843687 10.4371
lowerneck 1.04107 -11.6896 -11.5279
upperneck 3.93972 -16.0391 10.3838
head 3.26995 -8.0701 4.4849
lclavicle 2.34835e-14 -1.58755e-14 1.9416e-31
lhumerus -42.7424 -40.868 109.989
lradius 95.0879 -0 0
lwrist 40.0493 0 0
lhand -10.1923 38.2255 -0.0196082
lfingers 7.12502 -0 0
lthumb 15.7932 67.7185 -0.0680154
rclavicle 2.34835e-14 -1.58755e-14 1.9416e-31
rhumerus 38.6345 16.918 -45.7584
rradius 87.5862 -0 0
rwrist -17.2694 0 0
rhand 9.37535 -25.7753 1.62641
rfingers 7.12502 -0 0
rthumb 39.707 -57.6059 0.963996
409
root 2.81434 15.0124 -35.8731 177.711 77.1488 176.902
lfemur -8.64477 -7.43777 -19.2865
ltibia 58.4345 -0 0
lfoot -27.4081 33.5733 0.0969361
ltoes -17.3133 0 0
rfemur -47.3979 1.02196 7.82216
rtibia 28.4453 -0 0
rfoot 5.10142 -10.8603 2.01884
rtoes 16.698 -0 0
lowerback 15.7967 -1.24526 -9.01098
upperback -0.172319 -2.85968 4.22408
thorax -8.39648 -0.865495 10.4804
lowerneck 1.14988 -11.7669 -11.6146
upperneck 3.88072 -16.1585 10.5288
head 3.26145 -8.13119 4.53681
lclavicle 2.37452e-14 -1.59577e-14 1.89897e-31
lhumerus -42.5195 -40.9999 109.753
lradius 95.0102 -0 0
lwrist 39.7563 0 0
lhand -10.0325 38.2052 -0.018116
lfingers 7.12502 -0 0
lthumb 15.9473 67.6912 -0.0664673
rclavicle 2.37452e-14 -1.59577e-14 1.89897e-31
rhumerus 38.5676 17.0095 -45.4221
rradius 88.2573 -0 0
rwrist -17.6931 0 0
rhand 9.84574 -25.6643 1.62334
rfingers 7.12502 -0 0
rthumb 40.0422 -57.2582 0.991045
410
root 2.80481 15.0126 -35.8906 178.163 77.1334 177.306
lfemur -8.82442 -7.52991 -19.3058
ltibia 58.63 -0 0
lfoot -27.384 33.6552 0.0969658
ltoes -17.3691 0 0
rfemur -47.4349 0.982541 7.98427
rtibia 28.4423 -0 0
rfoot 4.81524 -11.1116 2.00109
rtoes 16.6163 -0 0
lowerback 15.813 -1.28129 -8.99362
upperback -0.15577 -2.901 4.26291
thorax -8.37656 -0.887177 10.5233
lowerneck 1.25831 -11.8437 -11.701
upperneck 3.82172 -16.2772 10.6733
head 3.25295 -8.19196 4.58852
lclavicle 2.40048e-14 -1.60388e-14 1.85466e-31
lhumerus -42.2967 -41.1299 109.517
lradius 94.9324 -0 0
lwrist 39.4647 0 0
lhand -9.87481 38.1852 -0.0166046
lfingers 7.12502 -0 0
lthumb 16.0993 67.664 -0.0648696
rclavicle 2.40048e-14 -1.60388e-14 1.85466e-31
rhumerus 38.4999 17.1009 -45.0875
rradius 88.9253 -0 0
rwrist -18.1156 0 0
rhand 10.3147 -25.5532 1.61907
rfingers 7.12502 -0 0
rthumb 40.3747 -56.9086 1.01597
411
root 2.79498 15.0128 -35.9082 178.613 77.1235 177.708
lfemur -9.00301 -7.62107 -19.3245
ltibia 58.8246 -0 0
lfoot -27.3597 33.7365 0.096937
ltoes -17.4249 0 0
rfemur -47.4721 0.942424 8.14582
rtibia 28.4409 -0 0
rfoot 4.5298 -11.361 1.98198
rtoes 16.5343 -0 0
lowerback 15.8294 -1.31705 -8.97634
upperback -0.139282 -2.94202 4.30145
thorax -8.35679 -0.908723 10.566
lowerneck 1.36633 -11.9198 -11.7873
upperneck 3.76274 -16.3951 10.8175
head 3.24445 -8.25239 4.64001
lclavicle 2.42625e-14 -1.61187e-14 1.80875e-31
lhumerus -42.074 -41.2579 109.28
lradius 94.8548 -0 0
lwrist 39.1747 0 0
lhand -9.71924 38.1654 -0.0150767
lfingers 7.12502 -0 0
lthumb 16.2493 67.6371 -0.063225
rclavicle 2.42625e-14 -1.61187e-14 1.80875e-31
rhumerus 38.4316 17.1921 -44.7548
rradius 89.5899 -0 0
rwrist -18.5368 0 0
rhand 10.7819 -25.4421 1.6136
rfingers 7.12502 -0 0
rthumb 40.7044 -56.5575 1.03875
412
root 2.78485 15.0129 -35.926 179.062 77.1191 178.109
lfemur -9.18047 -7.71121 -19.3423
ltibia 59.018 -0 0
lfoot -27.3352 33.8171 0.0968492
ltoes -17.4807 0 0
rfemur -47.5095 0.901608 8.30674
rtibia 28.4412 -0 0
rfoot 4.24519 -11.6081 1.96155
rtoes 16.452 -0 0
lowerback 15.8457 -1.35254 -8.95916
upperback -0.122858 -2.98274 4.33968
thorax -8.33716 -0.930124 10.6082
lowerneck 1.4739 -11.9954 -11.8734
upperneck 3.70382 -16.5121 10.9611
head 3.23596 -8.31247 4.69127
lclavicle 2.4518e-14 -1.61976e-14 1.76134e-31
lhumerus -41.8517 -41.3839 109.043
lradius 94.7772 -0 0
lwrist 38.8865 0 0
lhand -9.5659 38.1457 -0.0135349
lfingers 7.12502 -0 0
lthumb 16.3972 67.6104 -0.0615361
rclavicle 2.4518e-14 -1.61976e-14 1.76134e-31
rhumerus 38.3624 17.2832 -44.4241
rradius 90.2509 -0 0
rwrist -18.9564 0 0
rhand 11.2472 -25.331 1.60694
rfingers 7.12502 -0 0
rthumb 41.0312 -56.2051 1.05937
413
root 2.77442 15.0131 -35.9439 179.509 77.1205 178.51
lfemur -9.35675 -7.80027 -19.3593
ltibia 59.2104 -0 0
lfoot -27.3106 33.897 0.096702
ltoes -17.5364 0 0
rfemur -47.5472 0.860086 8.46697
rtibia 28.4432 -0 0
rfoot 3.9615 -11.8531 1.93983
rtoes 16.3694 -0 0
lowerback 15.8621 -1.38773 -8.94208
upperback -0.106504 -3.02312 4.37757
thorax -8.31768 -0.951369 10.6501
lowerneck 1.58099 -12.0703 -11.9591
upperneck 3.64497 -16.6284 11.1042
head 3.22748 -8.37221 4.74229
lclavicle 2.47713e-14 -1.62752e-14 1.7125e-31
lhumerus -41.6298 -41.5079 108.805
lradius 94.6999 -0 0
lwrist 38.6002 0 0
lhand -9.41487 38.1263 -0.011982
lfingers 7.12502 -0 0
lthumb 16.5428 67.5839 -0.0598057
rclavicle 2.47713e-14 -1.62752e-14 1.7125e-31
rhumerus 38.2925 17.3741 -44.0954
rradius 90.9079 -0 0
rwrist -19.3743 0 0
rhand 11.7102 -25.22 1.59909
rfingers 7.12502 -0 0
rthumb 41.3548 -55.8516 1.07784
414
root 2.76368 15.0132 -35.962 179.957 77.1278 178.911
lfemur -9.53176 -7.88822 -19.3756
ltibia 59.4015 -0 0
lfoot -27.2858 33.9761 0.0964948
ltoes -17.5921 0 0
rfemur -47.5852 0.817854 8.62645
rtibia 28.4469 -0 0
rfoot 3.67884 -12.0956 1.91682
rtoes 16.2867 -0 0
lowerback 15.8784 -1.42262 -8.92511
upperback -0.0902185 -3.06317 4.41513
thorax -8.29836 -0.972451 10.6916
lowerneck 1.68756 -12.1446 -12.0447
upperneck 3.58623 -16.7437 11.2467
head 3.21901 -8.43155 4.79302
lclavicle 2.50223e-14 -1.63518e-14 1.66234e-31
lhumerus -41.4086 -41.6296 108.567
lradius 94.6229 -0 0
lwrist 38.3161 0 0
lhand -9.26624 38.1071 -0.0104208
lfingers 7.12502 -0 0
lthumb 16.6861 67.5576 -0.0580368
rclavicle 2.50223e-14 -1.63518e-14 1.66234e-31
rhumerus 38.2219 17.4647 -43.7691
rradius 91.5607 -0 0
rwrist -19.7903 0 0
rhand 12.1707 -25.1091 1.59005
rfingers 7.12502 -0 0
rthumb 41.6753 -55.4971 1.09414
415
root 2.75262 15.0133 -35.9802 -179.596 77.141 179.312
lfemur -9.70545 -7.97502 -19.391
ltibia 59.5914 -0 0
lfoot -27.2608 34.0544 0.0962275
ltoes -17.6479 0 0
rfemur -47.6234 0.774904 8.78514
rtibia 28.4523 -0 0
rfoot 3.39728 -12.3358 1.89258
rtoes 16.2039 -0 0
lowerback 15.8947 -1.45719 -8.90825
upperback -0.0740074 -3.10286 4.45232
thorax -8.2792 -0.99336 10.7326
lowerneck 1.79356 -12.2183 -12.1299
upperneck 3.52761 -16.8582 11.3886
head 3.21056 -8.49048 4.84347
lclavicle 2.5271e-14 -1.64271e-14 1.61096e-31
lhumerus -41.1882 -41.7491 108.329
lradius 94.5462 -0 0
lwrist 38.0343 0 0
lhand -9.12008 38.0881 -0.00885432
lfingers 7.12502 -0 0
lthumb 16.8271 67.5316 -0.0562318
rclavicle 2.5271e-14 -1.64271e-14 1.61096e-31
rhumerus 38.1506 17.5551 -43.445
rradius 92.2089 -0 0
rwrist -20.2042 0 0
rhand 12.6285 -24.9983 1.57984
rfingers 7.12502 -0 0
rthumb 41.9923 -55.142 1.10829
416
root 2.74125 15.0133 -35.9985 -179.148 77.1605 179.715
lfemur -9.87775 -8.06061 -19.4056
ltibia 59.7799 -0 0
lfoot -27.2357 34.1319 0.0958994
ltoes -17.7035 0 0
rfemur -47.6618 0.731232 8.94297
rtibia 28.4594 -0 0
rfoot 3.11693 -12.5734 1.86713
rtoes 16.1209 -0 0
lowerback 15.911 -1.49141 -8.8915
upperback -0.0578744 -3.14216 4.48915
thorax -8.26021 -1.01409 10.7732
lowerneck 1.89897 -12.2913 -12.2148
upperneck 3.46916 -16.9718 11.5298
head 3.20214 -8.54899 4.89362
lclavicle 2.55173e-14 -1.65011e-14 1.55844e-31
lhumerus -40.9688 -41.8662 108.091
lradius 94.4699 -0 0
lwrist 37.755 0 0
lhand -8.97645 38.0694 -0.00728524
lfingers 7.12502 -0 0
lthumb 16.9655 67.5058 -0.0543945
rclavicle 2.55173e-14 -1.65011e-14 1.55844e-31
rhumerus 38.0785 17.645 -43.1234
rradius 92.8523 -0 0
rwrist -20.6159 0 0
rhand 13.0832 -24.8877 1.56846
rfingers 7.12502 -0 0
rthumb 42.3057 -54.7865 1.12027
417
root 2.72956 15.0134 -36.017 -178.699 77.1864 -179.881
lfemur -10.0486 -8.14496 -19.4194
ltibia 59.9671 -0 0
lfoot -27.2103 34.2086 0.0955104
ltoes -17.7592 0 0
rfemur -47.7004 0.686829 9.09988
rtibia 28.4684 -0 0
rfoot 2.83787 -12.8084 1.84049
rtoes 16.0378 -0 0
lowerback 15.9273 -1.52529 -8.87488
upperback -0.041823 -3.18107 4.52559
thorax -8.24139 -1.03462 10.8134
lowerneck 2.00374 -12.3636 -12.2993
upperneck 3.41088 -17.0843 11.6703
head 3.19375 -8.60707 4.94346
lclavicle 2.57611e-14 -1.6574e-14 1.5049e-31
lhumerus -40.7505 -41.981 107.853
lradius 94.394 -0 0
lwrist 37.4783 0 0
lhand -8.83549 38.0509 -0.0057168
lfingers 7.12502 -0 0
lthumb 17.1015 67.4802 -0.0525276
rclavicle 2.57611e-14 -1.6574e-14 1.5049e-31
rhumerus 38.0056 17.7346 -42.8045
rradius 93.4906 -0 0
rwrist -21.0252 0 0
rhand 13.5346 -24.7772 1.55593
rfingers 7.12502 -0 0
rthumb 42.6155 -54.4307 1.13012
418
root 2.71754 15.0134 -36.0357 -178.248 77.2187 -179.475
lfemur -10.2179 -8.22802 -19.4324
ltibia 60.1528 -0 0
lfoot -27.1849 34.2844 0.0950601
ltoes -17.8148 0 0
rfemur -47.7393 0.641691 9.25582
rtibia 28.4791 -0 0
rfoot 2.5602 -13.0407 1.81272
rtoes 15.9548 -0 0
lowerback 15.9435 -1.5588 -8.85838
upperback -0.0258567 -3.21957 4.56162
thorax -8.22275 -1.05495 10.8531
lowerneck 2.10784 -12.4351 -12.3835
upperneck 3.35282 -17.1959 11.81
head 3.1854 -8.6647 4.99297
lclavicle 2.60024e-14 -1.66455e-14 1.45043e-31
lhumerus -40.5335 -42.0934 107.616
lradius 94.3187 -0 0
lwrist 37.2045 0 0
lhand -8.69723 38.0326 -0.00415192
lfingers 7.12502 -0 0
lthumb 17.2348 67.4549 -0.0506342
rclavicle 2.60024e-14 -1.66455e-14 1.45043e-31
rhumerus 37.932 17.8237 -42.4882
rradius 94.1235 -0 0
rwrist -21.4318 0 0
rhand 13.9824 -24.6669 1.54225
rfingers 7.12502 -0 0
rthumb 42.9213 -54.075 1.13783
419
root 2.70519 15.0135 -36.0545 -177.794 77.2578 -179.065
lfemur -10.3856 -8.30974 -19.4445
ltibia 60.3369 -0 0
lfoot -27.1592 34.3592 0.0945483
ltoes -17.8703 0 0
rfemur -47.7783 0.595811 9.41073
rtibia 28.4916 -0 0
rfoot 2.284 -13.2702 1.78383
rtoes 15.8717 -0 0
lowerback 15.9597 -1.59192 -8.84201
upperback -0.00997873 -3.25763 4.59724
thorax -8.20429 -1.07507 10.8922
lowerneck 2.21123 -12.506 -12.4673
upperneck 3.295 -17.3065 11.9489
head 3.17709 -8.72187 5.04213
lclavicle 2.6241e-14 -1.67158e-14 1.39514e-31
lhumerus -40.3181 -42.2032 107.378
lradius 94.2439 -0 0
lwrist 36.9337 0 0
lhand -8.56178 38.0145 -0.00259366
lfingers 7.12502 -0 0
lthumb 17.3654 67.4298 -0.0487176
rclavicle 2.6241e-14 -1.67158e-14 1.39514e-31
rhumerus 37.8577 17.9123 -42.1747
rradius 94.7507 -0 0
rwrist -21.8357 0 0
rhand 14.4263 -24.5569 1.52745
rfingers 7.12502 -0 0
rthumb 43.2232 -53.7195 1.14344
